<?xml version="1.0" encoding="UTF-8" standalone="no"?><svg xmlns="http://www.w3.org/2000/svg" xmlns:xlink="http://www.w3.org/1999/xlink" contentScriptType="application/ecmascript" contentStyleType="text/css" height="578px" preserveAspectRatio="none" style="width:962px;height:578px;background:#FFFFFF;" version="1.1" viewBox="0 0 962 578" width="962px" zoomAndPan="magnify"><defs><filter height="300%" id="f1nygoo0crfc6u" width="300%" x="-1" y="-1"><feGaussianBlur result="blurOut" stdDeviation="2.0"/><feColorMatrix in="blurOut" result="blurOut2" type="matrix" values="0 0 0 0 0 0 0 0 0 0 0 0 0 0 0 0 0 0 .4 0"/><feOffset dx="4.0" dy="4.0" in="blurOut2" result="blurOut3"/><feBlend in="SourceGraphic" in2="blurOut3" mode="normal"/></filter></defs><g><!--MD5=[c8375d0abf05781a4d00ac7db9cff037]
cluster host--><polygon fill="#FFFFFF" filter="url(#f1nygoo0crfc6u)" points="16,16,26,6,945,6,945,561,935,571,16,571,16,16" style="stroke:#000000;stroke-width:1.5;"/><line style="stroke:#000000;stroke-width:1.5;" x1="935" x2="945" y1="16" y2="6"/><line style="stroke:#000000;stroke-width:1.5;" x1="16" x2="935" y1="16" y2="16"/><line style="stroke:#000000;stroke-width:1.5;" x1="935" x2="935" y1="16" y2="571"/><text fill="#000000" font-family="sans-serif" font-size="14" font-weight="bold" lengthAdjust="spacing" textLength="32" x="460.5" y="33.5332">Host</text><!--MD5=[746fa0775e24f81c5d954e6a1754cab0]
cluster docker1a--><polygon fill="#FFFFFF" filter="url(#f1nygoo0crfc6u)" points="40,263,50,253,235,253,235,348,225,358,40,358,40,263" style="stroke:#000000;stroke-width:1.5;"/><line style="stroke:#000000;stroke-width:1.5;" x1="225" x2="235" y1="263" y2="253"/><line style="stroke:#000000;stroke-width:1.5;" x1="40" x2="225" y1="263" y2="263"/><line style="stroke:#000000;stroke-width:1.5;" x1="225" x2="225" y1="263" y2="358"/><text fill="#000000" font-family="sans-serif" font-size="14" font-weight="bold" lengthAdjust="spacing" textLength="119" x="74" y="280.5332">Docker Container</text><!--MD5=[0930fd145478f299d57a41582d5e66da]
cluster docker1b--><polygon fill="#FFFFFF" filter="url(#f1nygoo0crfc6u)" points="40,392,50,382,235,382,235,477,225,487,40,487,40,392" style="stroke:#000000;stroke-width:1.5;"/><line style="stroke:#000000;stroke-width:1.5;" x1="225" x2="235" y1="392" y2="382"/><line style="stroke:#000000;stroke-width:1.5;" x1="40" x2="225" y1="392" y2="392"/><line style="stroke:#000000;stroke-width:1.5;" x1="225" x2="225" y1="392" y2="487"/><text fill="#000000" font-family="sans-serif" font-size="14" font-weight="bold" lengthAdjust="spacing" textLength="119" x="74" y="409.5332">Docker Container</text><!--MD5=[d21fae605d06c5a6718a5f2495aca339]
cluster docker2a--><polygon fill="#FFFFFF" filter="url(#f1nygoo0crfc6u)" points="359,327,369,317,554,317,554,412,544,422,359,422,359,327" style="stroke:#000000;stroke-width:1.5;"/><line style="stroke:#000000;stroke-width:1.5;" x1="544" x2="554" y1="327" y2="317"/><line style="stroke:#000000;stroke-width:1.5;" x1="359" x2="544" y1="327" y2="327"/><line style="stroke:#000000;stroke-width:1.5;" x1="544" x2="544" y1="327" y2="422"/><text fill="#000000" font-family="sans-serif" font-size="14" font-weight="bold" lengthAdjust="spacing" textLength="119" x="393" y="344.5332">Docker Container</text><!--MD5=[a0abbc7cd124a920d89855d9d17669ef]
cluster docker2b--><polygon fill="#FFFFFF" filter="url(#f1nygoo0crfc6u)" points="359,198,369,188,554,188,554,283,544,293,359,293,359,198" style="stroke:#000000;stroke-width:1.5;"/><line style="stroke:#000000;stroke-width:1.5;" x1="544" x2="554" y1="198" y2="188"/><line style="stroke:#000000;stroke-width:1.5;" x1="359" x2="544" y1="198" y2="198"/><line style="stroke:#000000;stroke-width:1.5;" x1="544" x2="544" y1="198" y2="293"/><text fill="#000000" font-family="sans-serif" font-size="14" font-weight="bold" lengthAdjust="spacing" textLength="119" x="393" y="215.5332">Docker Container</text><!--MD5=[565d5aeeec6f3e10a1595b6615f9e1b5]
cluster docker3a--><polygon fill="#FFFFFF" filter="url(#f1nygoo0crfc6u)" points="726,194,736,184,921,184,921,279,911,289,726,289,726,194" style="stroke:#000000;stroke-width:1.5;"/><line style="stroke:#000000;stroke-width:1.5;" x1="911" x2="921" y1="194" y2="184"/><line style="stroke:#000000;stroke-width:1.5;" x1="726" x2="911" y1="194" y2="194"/><line style="stroke:#000000;stroke-width:1.5;" x1="911" x2="911" y1="194" y2="289"/><text fill="#000000" font-family="sans-serif" font-size="14" font-weight="bold" lengthAdjust="spacing" textLength="119" x="760" y="211.5332">Docker Container</text><!--MD5=[4de4be6c505ca4df00b95ab726c08676]
cluster docker3b--><polygon fill="#FFFFFF" filter="url(#f1nygoo0crfc6u)" points="726,65,736,55,921,55,921,150,911,160,726,160,726,65" style="stroke:#000000;stroke-width:1.5;"/><line style="stroke:#000000;stroke-width:1.5;" x1="911" x2="921" y1="65" y2="55"/><line style="stroke:#000000;stroke-width:1.5;" x1="726" x2="911" y1="65" y2="65"/><line style="stroke:#000000;stroke-width:1.5;" x1="911" x2="911" y1="65" y2="160"/><text fill="#000000" font-family="sans-serif" font-size="14" font-weight="bold" lengthAdjust="spacing" textLength="119" x="760" y="82.5332">Docker Container</text><!--MD5=[c93989d5bd8aa350f39811aab86b44c0]
cluster docker3c--><polygon fill="#FFFFFF" filter="url(#f1nygoo0crfc6u)" points="726,323,736,313,921,313,921,408,911,418,726,418,726,323" style="stroke:#000000;stroke-width:1.5;"/><line style="stroke:#000000;stroke-width:1.5;" x1="911" x2="921" y1="323" y2="313"/><line style="stroke:#000000;stroke-width:1.5;" x1="726" x2="911" y1="323" y2="323"/><line style="stroke:#000000;stroke-width:1.5;" x1="911" x2="911" y1="323" y2="418"/><text fill="#000000" font-family="sans-serif" font-size="14" font-weight="bold" lengthAdjust="spacing" textLength="119" x="760" y="340.5332">Docker Container</text><!--MD5=[bc2301967c6429d6ebb208676a773a79]
cluster docker4--><polygon fill="#FFFFFF" filter="url(#f1nygoo0crfc6u)" points="726,452,736,442,921,442,921,537,911,547,726,547,726,452" style="stroke:#000000;stroke-width:1.5;"/><line style="stroke:#000000;stroke-width:1.5;" x1="911" x2="921" y1="452" y2="442"/><line style="stroke:#000000;stroke-width:1.5;" x1="726" x2="911" y1="452" y2="452"/><line style="stroke:#000000;stroke-width:1.5;" x1="911" x2="911" y1="452" y2="547"/><text fill="#000000" font-family="sans-serif" font-size="14" font-weight="bold" lengthAdjust="spacing" textLength="119" x="760" y="469.5332">Docker Container</text><!--MD5=[28135fbb2d052d271c4e825cd7583ca7]
entity users1a--><rect fill="#FEFECE" filter="url(#f1nygoo0crfc6u)" height="47.6094" style="stroke:#A80036;stroke-width:1.5;" width="128" x="73" y="294"/><rect fill="#FEFECE" height="10" style="stroke:#A80036;stroke-width:1.5;" width="15" x="181" y="299"/><rect fill="#FEFECE" height="2" style="stroke:#A80036;stroke-width:1.5;" width="4" x="179" y="301"/><rect fill="#FEFECE" height="2" style="stroke:#A80036;stroke-width:1.5;" width="4" x="179" y="305"/><text fill="#000000" font-family="sans-serif" font-size="14" lengthAdjust="spacing" textLength="88" x="88" y="328.5332">Users Service</text><!--MD5=[9d851d4d52de197bf2985c86ac9d7731]
entity users1b--><rect fill="#FEFECE" filter="url(#f1nygoo0crfc6u)" height="47.6094" style="stroke:#A80036;stroke-width:1.5;" width="128" x="73" y="423"/><rect fill="#FEFECE" height="10" style="stroke:#A80036;stroke-width:1.5;" width="15" x="181" y="428"/><rect fill="#FEFECE" height="2" style="stroke:#A80036;stroke-width:1.5;" width="4" x="179" y="430"/><rect fill="#FEFECE" height="2" style="stroke:#A80036;stroke-width:1.5;" width="4" x="179" y="434"/><text fill="#000000" font-family="sans-serif" font-size="14" lengthAdjust="spacing" textLength="88" x="88" y="457.5332">Users Service</text><!--MD5=[a33667d70ee15a1400eaf227fe58e34a]
entity sales2a--><rect fill="#FEFECE" filter="url(#f1nygoo0crfc6u)" height="47.6094" style="stroke:#A80036;stroke-width:1.5;" width="126" x="393" y="358"/><rect fill="#FEFECE" height="10" style="stroke:#A80036;stroke-width:1.5;" width="15" x="499" y="363"/><rect fill="#FEFECE" height="2" style="stroke:#A80036;stroke-width:1.5;" width="4" x="497" y="365"/><rect fill="#FEFECE" height="2" style="stroke:#A80036;stroke-width:1.5;" width="4" x="497" y="369"/><text fill="#000000" font-family="sans-serif" font-size="14" lengthAdjust="spacing" textLength="86" x="408" y="392.5332">Sales Service</text><!--MD5=[b5dcbeba8996bc074e0961ddf7e96564]
entity sales2b--><rect fill="#FEFECE" filter="url(#f1nygoo0crfc6u)" height="47.6094" style="stroke:#A80036;stroke-width:1.5;" width="126" x="393" y="229"/><rect fill="#FEFECE" height="10" style="stroke:#A80036;stroke-width:1.5;" width="15" x="499" y="234"/><rect fill="#FEFECE" height="2" style="stroke:#A80036;stroke-width:1.5;" width="4" x="497" y="236"/><rect fill="#FEFECE" height="2" style="stroke:#A80036;stroke-width:1.5;" width="4" x="497" y="240"/><text fill="#000000" font-family="sans-serif" font-size="14" lengthAdjust="spacing" textLength="86" x="408" y="263.5332">Sales Service</text><!--MD5=[4c188fb4f86f27ac42f091660403d55b]
entity products3a--><rect fill="#FEFECE" filter="url(#f1nygoo0crfc6u)" height="47.6094" style="stroke:#A80036;stroke-width:1.5;" width="147" x="750" y="225"/><rect fill="#FEFECE" height="10" style="stroke:#A80036;stroke-width:1.5;" width="15" x="877" y="230"/><rect fill="#FEFECE" height="2" style="stroke:#A80036;stroke-width:1.5;" width="4" x="875" y="232"/><rect fill="#FEFECE" height="2" style="stroke:#A80036;stroke-width:1.5;" width="4" x="875" y="236"/><text fill="#000000" font-family="sans-serif" font-size="14" lengthAdjust="spacing" textLength="107" x="765" y="259.5332">Products Service</text><!--MD5=[a63bacb35ee7df3737e3e8293d21a1c3]
entity products3b--><rect fill="#FEFECE" filter="url(#f1nygoo0crfc6u)" height="47.6094" style="stroke:#A80036;stroke-width:1.5;" width="147" x="750" y="96"/><rect fill="#FEFECE" height="10" style="stroke:#A80036;stroke-width:1.5;" width="15" x="877" y="101"/><rect fill="#FEFECE" height="2" style="stroke:#A80036;stroke-width:1.5;" width="4" x="875" y="103"/><rect fill="#FEFECE" height="2" style="stroke:#A80036;stroke-width:1.5;" width="4" x="875" y="107"/><text fill="#000000" font-family="sans-serif" font-size="14" lengthAdjust="spacing" textLength="107" x="765" y="130.5332">Products Service</text><!--MD5=[402a22f1acc0c93870a8e62b8ccba03b]
entity products3c--><rect fill="#FEFECE" filter="url(#f1nygoo0crfc6u)" height="47.6094" style="stroke:#A80036;stroke-width:1.5;" width="147" x="750" y="354"/><rect fill="#FEFECE" height="10" style="stroke:#A80036;stroke-width:1.5;" width="15" x="877" y="359"/><rect fill="#FEFECE" height="2" style="stroke:#A80036;stroke-width:1.5;" width="4" x="875" y="361"/><rect fill="#FEFECE" height="2" style="stroke:#A80036;stroke-width:1.5;" width="4" x="875" y="365"/><text fill="#000000" font-family="sans-serif" font-size="14" lengthAdjust="spacing" textLength="107" x="765" y="388.5332">Products Service</text><!--MD5=[6757e56db7bc0b2ef27efcfe2c53d728]
entity zookeeper--><rect fill="#FEFECE" filter="url(#f1nygoo0crfc6u)" height="47.6094" style="stroke:#A80036;stroke-width:1.5;" width="109" x="769" y="483"/><rect fill="#FEFECE" height="10" style="stroke:#A80036;stroke-width:1.5;" width="15" x="858" y="488"/><rect fill="#FEFECE" height="2" style="stroke:#A80036;stroke-width:1.5;" width="4" x="856" y="490"/><rect fill="#FEFECE" height="2" style="stroke:#A80036;stroke-width:1.5;" width="4" x="856" y="494"/><text fill="#000000" font-family="sans-serif" font-size="14" lengthAdjust="spacing" textLength="69" x="784" y="517.5332">Zookeeper</text><!--MD5=[b0fddb59c1819eccf6be1c5d0786bf5c]
link users1a to sales2a--><path d="M201.01,330.72 C255.08,341.64 332.79,357.33 387.99,368.47 " fill="none" id="users1a-to-sales2a" style="stroke:#A80036;stroke-width:1.0;"/><polygon fill="#A80036" points="392.92,369.47,384.9016,363.7511,388.021,368.4702,383.3019,371.5896,392.92,369.47" style="stroke:#A80036;stroke-width:1.0;"/><!--MD5=[e9228a497203681e8090c65370bac51e]
link users1a to sales2b--><path d="M201.01,305.08 C255.08,293.99 332.79,278.06 387.99,266.74 " fill="none" id="users1a-to-sales2b" style="stroke:#A80036;stroke-width:1.0;"/><polygon fill="#A80036" points="392.92,265.73,383.3019,263.6104,388.021,266.7298,384.9016,271.4489,392.92,265.73" style="stroke:#A80036;stroke-width:1.0;"/><!--MD5=[97218a9403f393e7fdd2b72e6ca870b2]
link users1b to sales2a--><path d="M201.01,434.08 C255.08,422.99 332.79,407.06 387.99,395.74 " fill="none" id="users1b-to-sales2a" style="stroke:#A80036;stroke-width:1.0;"/><polygon fill="#A80036" points="392.92,394.73,383.3019,392.6104,388.021,395.7298,384.9016,400.4489,392.92,394.73" style="stroke:#A80036;stroke-width:1.0;"/><!--MD5=[ddfc48bbbfad0ce11bb8b31e61d28f05]
link users1b to sales2b--><path d="M177.51,422.82 C236.99,386.42 349.17,317.77 411.12,279.85 " fill="none" id="users1b-to-sales2b" style="stroke:#A80036;stroke-width:1.0;"/><polygon fill="#A80036" points="415.49,277.18,405.7224,278.4427,411.219,279.7797,409.882,285.2763,415.49,277.18" style="stroke:#A80036;stroke-width:1.0;"/><!--MD5=[010fe71d136b55e3cef1e9431caf9395]
link sales2a to products3a--><path d="M519,359.44 C583.44,335.99 684.14,299.35 751.68,274.77 " fill="none" id="sales2a-to-products3a" style="stroke:#A80036;stroke-width:1.0;"/><polygon fill="#A80036" points="756.48,273.02,746.6561,272.3197,751.7781,274.7207,749.3772,279.8427,756.48,273.02" style="stroke:#A80036;stroke-width:1.0;"/><!--MD5=[95ec4b0e2de4c8d8f9f5a79d432e9e86]
link sales2a to products3b--><path d="M490.73,357.82 C559,308.88 713.12,198.41 784.67,147.11 " fill="none" id="sales2a-to-products3b" style="stroke:#A80036;stroke-width:1.0;"/><polygon fill="#A80036" points="788.85,144.12,779.2034,146.1058,784.7842,147.0302,783.8598,152.611,788.85,144.12" style="stroke:#A80036;stroke-width:1.0;"/><!--MD5=[411c8c213fb5d7165872fb51d86fde2e]
link sales2a to products3c--><path d="M519,381.32 C581.23,380.64 677.27,379.59 744.61,378.85 " fill="none" id="sales2a-to-products3c" style="stroke:#A80036;stroke-width:1.0;"/><polygon fill="#A80036" points="749.81,378.8,740.7649,374.9031,744.8103,378.8571,740.8563,382.9026,749.81,378.8" style="stroke:#A80036;stroke-width:1.0;"/><!--MD5=[c62563c5a204d85146f7e8add0a7a90b]
link sales2b to products3a--><path d="M519,252.32 C581.23,251.64 677.27,250.59 744.61,249.85 " fill="none" id="sales2b-to-products3a" style="stroke:#A80036;stroke-width:1.0;"/><polygon fill="#A80036" points="749.81,249.8,740.7649,245.9031,744.8103,249.8571,740.8563,253.9026,749.81,249.8" style="stroke:#A80036;stroke-width:1.0;"/><!--MD5=[c3c9bab56678b01a48a76089c8b8ea64]
link sales2b to products3b--><path d="M519,230.44 C583.44,206.99 684.14,170.35 751.68,145.77 " fill="none" id="sales2b-to-products3b" style="stroke:#A80036;stroke-width:1.0;"/><polygon fill="#A80036" points="756.48,144.02,746.6561,143.3197,751.7781,145.7207,749.3772,150.8427,756.48,144.02" style="stroke:#A80036;stroke-width:1.0;"/><!--MD5=[f54ed03e3a3e86575c7c4c16ff7d3562]
link sales2b to products3c--><path d="M519,274.2 C582.05,295.77 679.81,329.2 747.26,352.27 " fill="none" id="sales2b-to-products3c" style="stroke:#A80036;stroke-width:1.0;"/><polygon fill="#A80036" points="752.06,353.91,744.835,347.2168,747.3281,352.2946,742.2503,354.7878,752.06,353.91" style="stroke:#A80036;stroke-width:1.0;"/><!--MD5=[d8ed18f9deef1b404fb8d5a50bb4e852]
link users1a to zookeeper--><path d="M178.6,342.04 C220.44,365.79 288.23,401.46 351,422 C427.07,446.89 655.22,482.4 763.81,498.49 " fill="none" id="users1a-to-zookeeper" style="stroke:#0000FF;stroke-width:1.0;"/><polygon fill="#0000FF" points="768.89,499.24,760.5695,493.9703,763.9434,498.5109,759.4029,501.8848,768.89,499.24" style="stroke:#0000FF;stroke-width:1.0;"/><!--MD5=[952e8440242e57d413b4d38190d5acd4]
link users1b to zookeeper--><path d="M201.17,452.54 C332.89,464.08 635.25,490.59 763.38,501.82 " fill="none" id="users1b-to-zookeeper" style="stroke:#0000FF;stroke-width:1.0;"/><polygon fill="#0000FF" points="768.61,502.28,759.9868,497.5218,763.6285,501.8506,759.2997,505.4922,768.61,502.28" style="stroke:#0000FF;stroke-width:1.0;"/><!--MD5=[20c566e20e559a20fe725627f643601b]
reverse link zookeeper to sales2a--><path d="M764.08,487.02 C697.03,464.09 587.52,426.64 519,403.2 " fill="none" id="zookeeper-backto-sales2a" style="stroke:#0000FF;stroke-width:1.0;"/><polygon fill="#0000FF" points="768.83,488.65,761.605,481.9568,764.0981,487.0346,759.0203,489.5278,768.83,488.65" style="stroke:#0000FF;stroke-width:1.0;"/><!--MD5=[b34ca439887660a2486ac38fccfe5e30]
reverse link zookeeper to sales2b--><path d="M783.56,479.94 C711.88,430.13 560.11,324.66 491.71,277.12 " fill="none" id="zookeeper-backto-sales2b" style="stroke:#0000FF;stroke-width:1.0;"/><polygon fill="#0000FF" points="787.75,482.85,782.6332,474.4346,783.6411,480.001,778.0748,481.0089,787.75,482.85" style="stroke:#0000FF;stroke-width:1.0;"/><!--MD5=[57dc60383202c31a00ddf6540dc280e7]
link products3a to zookeeper--><path d="M750.92,273.01 C686.44,298.64 607.12,343.4 640,400.5 C666.46,446.45 721.18,474.4 764.02,490.06 " fill="none" id="products3a-to-zookeeper" style="stroke:#0000FF;stroke-width:1.0;"/><polygon fill="#0000FF" points="768.92,491.82,761.7923,485.0233,764.2119,490.1365,759.0987,492.5562,768.92,491.82" style="stroke:#0000FF;stroke-width:1.0;"/><!--MD5=[91b321b88a281c05701e4739af342c2a]
link products3b to zookeeper--><path d="M749.86,142.41 C709.76,158.81 663.62,185.48 640,226.5 C601.41,293.52 601.41,333.48 640,400.5 C666.46,446.45 721.18,474.4 764.02,490.06 " fill="none" id="products3b-to-zookeeper" style="stroke:#0000FF;stroke-width:1.0;"/><polygon fill="#0000FF" points="768.92,491.82,761.7923,485.0233,764.2119,490.1365,759.0987,492.5562,768.92,491.82" style="stroke:#0000FF;stroke-width:1.0;"/><!--MD5=[7f1a61ea7ae7281bd4f0b92a7f1c8621]
link products3c to zookeeper--><path d="M823.5,402.16 C823.5,427.36 823.5,452.57 823.5,477.77 " fill="none" id="products3c-to-zookeeper" style="stroke:#0000FF;stroke-width:1.0;"/><polygon fill="#0000FF" points="823.5,482.81,827.5,473.81,823.5,477.81,819.5,473.81,823.5,482.81" style="stroke:#0000FF;stroke-width:1.0;"/><!--MD5=[3d6ee54f4c62dc5a257e6038573b0d0a]
@startuml
left to right direction
node host as "Host" {
	
	node docker1a as "Docker Container" {
		component users1a as "Users Service"
	}
	
	node docker1b as "Docker Container" {
		component users1b as "Users Service"
	}
	
	node docker2a as "Docker Container" {
		component sales2a as "Sales Service"
	}
	
	node docker2b as "Docker Container" {
		component sales2b as "Sales Service"
	}

	node docker3a as "Docker Container" {
		component products3a as "Products Service"
	}
	
	node docker3b as "Docker Container" {
		component products3b as "Products Service"
	}
	
	node docker3c as "Docker Container" {
		component products3c as "Products Service"
	}
	
	node docker4 as "Docker Container" {
		component zookeeper as "Zookeeper"
	}
	
	users1a - -> sales2a
	users1a - -> sales2b
	users1b - -> sales2a
	users1b - -> sales2b

	sales2a - -> products3a
	sales2a - -> products3b
	sales2a - -> products3c
	sales2b - -> products3a
	sales2b - -> products3b
	sales2b - -> products3c
	
	users1a -[#blue]-> zookeeper
	users1b -[#blue]-> zookeeper
	sales2a -[#blue]l-> zookeeper
	sales2b -[#blue]l-> zookeeper
	products3a -[#blue]r-> zookeeper
	products3b -[#blue]r-> zookeeper
	products3c -[#blue]r-> zookeeper
	
}
@enduml

PlantUML version 1.2021.16(Wed Dec 08 18:25:22 CET 2021)
(GPL source distribution)
Java Runtime: OpenJDK Runtime Environment
JVM: OpenJDK 64-Bit Server VM
Default Encoding: Cp1252
Language: en
Country: US
--></g></svg>